<?xml version="1.0" encoding="UTF-8"?>
<svg id="Layer_1" data-name="Layer 1" xmlns="http://www.w3.org/2000/svg" viewBox="0 0 1920 1080">
  <defs>
    <style>
      .cls-1 {
        fill: #70b2b2;
      }

      .cls-2 {
        fill: #016a63;
      }

      .cls-3 {
        fill: #e9c46b;
      }
    </style>
  </defs>
  <path class="cls-1" d="M353.09,834.31c-33.43,0-64.86-13.02-88.5-36.66-23.64-23.64-36.66-55.07-36.66-88.5s13.02-64.86,36.66-88.5c23.64-23.64,55.07-36.66,88.5-36.66s64.86,13.02,88.5,36.66c23.64,23.64,36.66,55.07,36.66,88.5s-13.02,64.86-36.66,88.5c-23.64,23.64-55.07,36.66-88.5,36.66ZM353.09,587.17c-32.58,0-63.22,12.69-86.26,35.73-23.04,23.04-35.73,53.68-35.73,86.26s12.69,63.22,35.73,86.26c23.04,23.04,53.68,35.73,86.26,35.73s63.22-12.69,86.26-35.73c23.04-23.04,35.73-53.67,35.73-86.26s-12.69-63.22-35.73-86.26c-23.04-23.04-53.68-35.73-86.26-35.73Z"/>
  <circle class="cls-3" cx="353.09" cy="709.16" r="105.93"/>
  <path class="cls-1" d="M172.79,499.87c-28.67,0-55.63-11.17-75.91-31.44-20.28-20.27-31.44-47.23-31.44-75.91s11.17-55.63,31.44-75.91c20.28-20.28,47.23-31.44,75.91-31.44s55.63,11.17,75.91,31.44c20.28,20.28,31.44,47.23,31.44,75.91s-11.17,55.63-31.44,75.91-47.23,31.44-75.91,31.44ZM172.79,288.35c-27.83,0-53.99,10.84-73.67,30.51-19.68,19.68-30.51,45.84-30.51,73.67s10.84,53.99,30.51,73.67c19.68,19.68,45.84,30.51,73.67,30.51s53.99-10.84,73.67-30.51c19.68-19.68,30.51-45.84,30.51-73.67s-10.84-53.99-30.51-73.67c-19.68-19.68-45.84-30.51-73.67-30.51Z"/>
  <circle class="cls-1" cx="172.79" cy="392.53" r="88.11"/>
  <path class="cls-1" d="M754.72,589.66c-41.3,0-74.9-33.6-74.9-74.9s33.6-74.9,74.9-74.9,74.9,33.6,74.9,74.9-33.6,74.9-74.9,74.9ZM754.72,443.04c-39.55,0-71.73,32.18-71.73,71.73s32.18,71.73,71.73,71.73,71.73-32.18,71.73-71.73-32.18-71.73-71.73-71.73Z"/>
  <circle class="cls-2" cx="754.72" cy="514.77" r="55.66"/>
</svg>