<?xml version="1.0" encoding="UTF-8"?>
<svg id="Layer_1" data-name="Layer 1" xmlns="http://www.w3.org/2000/svg" viewBox="0 0 743.28 636.96">
  <defs>
    <style>
      .cls-1 {
        fill: #70b2b2;
      }
    </style>
  </defs>
  <path class="cls-1" d="M371.64,485.07c-39.38,0-76.4-15.34-104.25-43.18-27.85-27.85-43.18-64.87-43.18-104.25s15.34-76.4,43.18-104.25c27.85-27.85,64.87-43.18,104.25-43.18s76.4,15.34,104.25,43.18c27.85,27.85,43.18,64.87,43.18,104.25s-15.34,76.4-43.18,104.25c-27.85,27.85-64.87,43.18-104.25,43.18ZM371.64,193.38c-38.53,0-74.76,15.01-102.01,42.25-27.25,27.25-42.25,63.47-42.25,102.01s15.01,74.76,42.25,102.01c27.25,27.25,63.47,42.25,102.01,42.25s74.76-15.01,102.01-42.25c27.25-27.25,42.25-63.47,42.25-102.01s-15.01-74.76-42.25-102.01-63.47-42.25-102.01-42.25Z"/>
  <circle class="cls-1" cx="371.64" cy="337.64" r="121.51"/>
</svg>