<?xml version="1.0" encoding="UTF-8"?>
<svg id="Layer_1" data-name="Layer 1" xmlns="http://www.w3.org/2000/svg" viewBox="0 0 743.28 636.96">
  <defs>
    <style>
      .cls-1 {
        fill: #70b2b2;
      }

      .cls-2 {
        fill: #e9c46b;
      }
    </style>
  </defs>
  <path class="cls-1" d="M346.09,426.57c-16.93,0-32.84-6.59-44.81-18.56-11.97-11.97-18.56-27.88-18.56-44.81s6.59-32.84,18.56-44.81c11.97-11.97,27.88-18.56,44.81-18.56s32.84,6.59,44.81,18.56c11.97,11.97,18.56,27.88,18.56,44.81s-6.59,32.84-18.56,44.81c-11.97,11.97-27.88,18.56-44.81,18.56ZM346.09,302.99c-16.08,0-31.2,6.26-42.57,17.63-11.37,11.37-17.63,26.49-17.63,42.57s6.26,31.2,17.63,42.57c11.37,11.37,26.49,17.63,42.57,17.63s31.2-6.26,42.57-17.63c11.37-11.37,17.63-26.49,17.63-42.57s-6.26-31.2-17.63-42.57c-11.37-11.37-26.49-17.63-42.57-17.63Z"/>
  <circle class="cls-2" cx="346.09" cy="363.19" r="52.96"/>
</svg>