<?xml version="1.0" encoding="UTF-8"?>
<svg id="Layer_1" data-name="Layer 1" xmlns="http://www.w3.org/2000/svg" viewBox="0 0 1920 480.66">
  <defs>
    <style>
      .cls-1 {
        fill: #70b2b2;
      }

      .cls-1, .cls-2, .cls-3 {
        opacity: .33;
      }

      .cls-4, .cls-2 {
        fill: #016a63;
      }

      .cls-3 {
        fill: #6e8cfc;
      }
    </style>
  </defs>
  <path class="cls-3" d="M1873.29,391.88c-33.75,0-50.83-14.3-67.35-28.13-8.04-6.74-16.36-13.7-26.5-18.8-11.32-5.69-23.88-8.45-38.42-8.45s-27.1,2.76-38.42,8.45c-10.14,5.09-18.46,12.06-26.5,18.8-16.51,13.83-33.59,28.13-67.34,28.13s-50.83-14.3-67.34-28.13c-8.04-6.74-16.36-13.7-26.5-18.8-11.32-5.69-23.88-8.45-38.42-8.45s-27.1,2.76-38.42,8.45c-10.14,5.09-18.45,12.06-26.5,18.8-16.51,13.83-33.59,28.13-67.34,28.13s-50.83-14.3-67.34-28.13c-8.04-6.74-16.36-13.7-26.5-18.8-11.32-5.69-23.88-8.45-38.42-8.45s-27.1,2.76-38.42,8.45c-10.14,5.09-18.46,12.06-26.5,18.8-16.51,13.83-33.59,28.13-67.34,28.13s-50.83-14.3-67.34-28.13c-8.04-6.74-16.36-13.7-26.5-18.8-11.32-5.69-23.88-8.45-38.42-8.45s-27.1,2.76-38.42,8.45c-10.14,5.09-18.46,12.06-26.5,18.8-16.51,13.83-33.59,28.13-67.34,28.13s-50.83-14.3-67.34-28.13c-8.04-6.74-16.36-13.7-26.5-18.8-11.32-5.69-23.88-8.45-38.42-8.45s-27.1,2.76-38.42,8.45c-10.14,5.09-18.45,12.06-26.5,18.8-16.51,13.83-33.59,28.13-67.34,28.13s-50.83-14.3-67.34-28.13c-8.04-6.74-16.36-13.7-26.5-18.8-11.32-5.69-23.88-8.45-38.42-8.45s-27.1,2.76-38.42,8.45c-10.14,5.09-18.45,12.06-26.5,18.8-16.51,13.83-33.59,28.13-67.34,28.13s-50.83-14.3-67.34-28.13c-8.04-6.74-16.36-13.7-26.5-18.8-11.32-5.69-23.88-8.45-38.42-8.45v-3.78c33.75,0,50.83,14.3,67.34,28.13,8.04,6.74,16.36,13.7,26.5,18.8,11.32,5.69,23.88,8.45,38.42,8.45s27.1-2.76,38.42-8.45c10.14-5.09,18.45-12.06,26.5-18.8,16.51-13.83,33.59-28.13,67.34-28.13s50.83,14.3,67.34,28.13c8.04,6.74,16.36,13.7,26.5,18.8,11.32,5.69,23.88,8.45,38.42,8.45s27.1-2.76,38.41-8.45c10.14-5.09,18.45-12.06,26.5-18.8,16.51-13.83,33.59-28.13,67.34-28.13s50.83,14.3,67.34,28.13c8.04,6.74,16.36,13.7,26.5,18.8,11.32,5.69,23.88,8.45,38.42,8.45s27.1-2.76,38.42-8.45c10.14-5.09,18.46-12.06,26.5-18.8,16.51-13.83,33.59-28.13,67.34-28.13s50.83,14.3,67.34,28.13c8.04,6.74,16.36,13.7,26.5,18.8,11.32,5.69,23.88,8.45,38.42,8.45s27.1-2.76,38.42-8.45c10.14-5.09,18.46-12.06,26.5-18.8,16.51-13.83,33.59-28.13,67.34-28.13s50.83,14.3,67.34,28.13c8.05,6.74,16.36,13.7,26.5,18.8,11.32,5.69,23.88,8.45,38.42,8.45s27.1-2.76,38.42-8.45c10.14-5.09,18.45-12.06,26.5-18.8,16.51-13.83,33.59-28.13,67.34-28.13s50.83,14.3,67.34,28.13c8.05,6.74,16.36,13.7,26.5,18.8,11.32,5.69,23.88,8.45,38.42,8.45s27.1-2.76,38.42-8.45c10.14-5.09,18.46-12.06,26.5-18.8,16.52-13.83,33.59-28.13,67.34-28.13s50.83,14.3,67.34,28.13c8.05,6.74,16.36,13.7,26.5,18.8,11.32,5.69,23.88,8.45,38.42,8.45v3.78Z"/>
  <path class="cls-1" d="M1842.68,345.08c-33.75,0-50.83-14.3-67.34-28.13-8.04-6.74-16.36-13.7-26.5-18.8-11.32-5.69-23.88-8.45-38.42-8.45s-27.1,2.76-38.42,8.45c-10.14,5.09-18.46,12.06-26.5,18.8-16.52,13.83-33.59,28.13-67.34,28.13s-50.83-14.3-67.34-28.13c-8.04-6.74-16.36-13.7-26.5-18.8-11.32-5.69-23.88-8.45-38.42-8.45s-27.1,2.76-38.42,8.45c-10.14,5.09-18.45,12.06-26.5,18.8-16.51,13.83-33.59,28.13-67.34,28.13s-50.83-14.3-67.34-28.13c-8.04-6.74-16.36-13.7-26.5-18.8-11.32-5.69-23.88-8.45-38.42-8.45s-27.1,2.76-38.42,8.45c-10.14,5.09-18.46,12.06-26.5,18.8-16.51,13.83-33.59,28.13-67.34,28.13s-50.83-14.3-67.34-28.13c-8.04-6.74-16.36-13.7-26.5-18.8-11.32-5.69-23.88-8.45-38.42-8.45s-27.1,2.76-38.42,8.45c-10.14,5.09-18.45,12.06-26.5,18.8-16.51,13.83-33.59,28.13-67.34,28.13s-50.83-14.3-67.34-28.13c-8.04-6.74-16.36-13.7-26.5-18.8-11.32-5.69-23.88-8.45-38.42-8.45s-27.1,2.76-38.42,8.45c-10.14,5.09-18.45,12.06-26.5,18.8-16.51,13.83-33.59,28.13-67.34,28.13s-50.83-14.3-67.34-28.13c-8.04-6.74-16.36-13.7-26.5-18.8-11.32-5.69-23.88-8.45-38.42-8.45s-27.1,2.76-38.42,8.45c-10.14,5.09-18.45,12.06-26.5,18.8-16.51,13.83-33.59,28.13-67.34,28.13s-50.83-14.3-67.34-28.13c-8.04-6.74-16.36-13.7-26.5-18.8-11.32-5.69-23.88-8.45-38.42-8.45v-3.78c33.75,0,50.83,14.3,67.34,28.13,8.04,6.74,16.36,13.7,26.5,18.8,11.32,5.69,23.88,8.45,38.42,8.45s27.1-2.76,38.42-8.45c10.14-5.09,18.45-12.06,26.5-18.8,16.51-13.83,33.59-28.13,67.34-28.13s50.83,14.3,67.34,28.13c8.04,6.74,16.36,13.7,26.5,18.8,11.32,5.69,23.88,8.45,38.42,8.45s27.1-2.76,38.41-8.45c10.14-5.09,18.45-12.06,26.5-18.8,16.51-13.83,33.59-28.13,67.34-28.13s50.83,14.3,67.34,28.13c8.04,6.74,16.36,13.7,26.5,18.8,11.32,5.69,23.88,8.45,38.42,8.45s27.1-2.76,38.42-8.45c10.14-5.09,18.45-12.06,26.5-18.8,16.51-13.83,33.59-28.13,67.34-28.13s50.83,14.3,67.34,28.13c8.04,6.74,16.36,13.7,26.5,18.8,11.32,5.69,23.88,8.45,38.42,8.45s27.1-2.76,38.42-8.45c10.14-5.09,18.46-12.06,26.5-18.8,16.51-13.83,33.59-28.13,67.34-28.13s50.83,14.3,67.34,28.13c8.05,6.74,16.36,13.7,26.5,18.8,11.32,5.69,23.88,8.45,38.42,8.45s27.1-2.76,38.42-8.45c10.14-5.09,18.45-12.06,26.5-18.8,16.51-13.83,33.59-28.13,67.34-28.13s50.83,14.3,67.34,28.13c8.05,6.74,16.36,13.7,26.5,18.8,11.32,5.69,23.88,8.45,38.42,8.45s27.1-2.76,38.42-8.45c10.14-5.09,18.46-12.06,26.5-18.8,16.52-13.83,33.59-28.13,67.35-28.13s50.83,14.3,67.34,28.13c8.04,6.74,16.36,13.7,26.5,18.8,11.32,5.69,23.88,8.45,38.42,8.45v3.78Z"/>
  <path class="cls-3" d="M1872.46,298.27c-33.75,0-50.83-14.3-67.34-28.13-8.04-6.74-16.36-13.7-26.5-18.8-11.32-5.69-23.88-8.45-38.42-8.45s-27.1,2.76-38.42,8.45c-10.14,5.09-18.46,12.06-26.5,18.8-16.52,13.83-33.59,28.13-67.34,28.13s-50.83-14.3-67.34-28.13c-8.04-6.74-16.36-13.7-26.5-18.8-11.32-5.69-23.88-8.45-38.42-8.45s-27.1,2.76-38.42,8.45c-10.14,5.09-18.45,12.06-26.5,18.8-16.51,13.83-33.59,28.13-67.34,28.13s-50.83-14.3-67.34-28.13c-8.04-6.74-16.36-13.7-26.5-18.8-11.32-5.69-23.88-8.45-38.42-8.45s-27.1,2.76-38.42,8.45c-10.14,5.09-18.45,12.06-26.5,18.8-16.51,13.83-33.59,28.13-67.34,28.13s-50.83-14.3-67.34-28.13c-8.04-6.74-16.36-13.7-26.5-18.8-11.32-5.69-23.88-8.45-38.42-8.45s-27.1,2.76-38.42,8.45c-10.14,5.09-18.45,12.06-26.5,18.8-16.51,13.83-33.59,28.13-67.34,28.13s-50.83-14.3-67.34-28.13c-8.04-6.74-16.36-13.7-26.5-18.8-11.32-5.69-23.88-8.45-38.42-8.45s-27.1,2.76-38.41,8.45c-10.14,5.09-18.45,12.06-26.5,18.8-16.51,13.83-33.59,28.13-67.34,28.13s-50.83-14.3-67.34-28.13c-8.04-6.74-16.36-13.7-26.5-18.8-11.32-5.69-23.88-8.45-38.42-8.45s-27.1,2.76-38.42,8.45c-10.14,5.09-18.45,12.06-26.5,18.8-16.51,13.83-33.59,28.13-67.34,28.13s-50.83-14.3-67.34-28.13c-8.04-6.74-16.36-13.7-26.5-18.8-11.32-5.69-23.88-8.45-38.42-8.45v-3.78c33.75,0,50.83,14.3,67.34,28.13,8.04,6.74,16.36,13.7,26.5,18.8,11.32,5.69,23.88,8.45,38.42,8.45s27.1-2.76,38.42-8.45c10.14-5.09,18.45-12.06,26.5-18.8,16.51-13.83,33.59-28.13,67.34-28.13s50.83,14.3,67.34,28.13c8.04,6.74,16.36,13.7,26.5,18.8,11.32,5.69,23.88,8.45,38.42,8.45s27.1-2.76,38.42-8.45c10.14-5.09,18.45-12.06,26.5-18.8,16.51-13.83,33.59-28.13,67.34-28.13s50.83,14.3,67.34,28.13c8.04,6.74,16.36,13.7,26.5,18.8,11.32,5.69,23.88,8.45,38.42,8.45s27.1-2.76,38.42-8.45c10.14-5.09,18.45-12.06,26.5-18.8,16.51-13.83,33.59-28.13,67.34-28.13s50.83,14.3,67.34,28.13c8.04,6.74,16.36,13.7,26.5,18.8,11.32,5.69,23.88,8.45,38.42,8.45s27.1-2.76,38.42-8.45c10.14-5.09,18.45-12.06,26.5-18.8,16.51-13.83,33.59-28.13,67.34-28.13s50.83,14.3,67.34,28.13c8.05,6.74,16.36,13.7,26.5,18.8,11.32,5.69,23.88,8.45,38.42,8.45s27.1-2.76,38.42-8.45c10.14-5.09,18.45-12.06,26.5-18.8,16.51-13.83,33.59-28.13,67.34-28.13s50.83,14.3,67.34,28.13c8.05,6.74,16.36,13.7,26.5,18.8,11.32,5.69,23.88,8.45,38.42,8.45s27.1-2.76,38.42-8.45c10.14-5.09,18.46-12.06,26.5-18.8,16.52-13.83,33.59-28.13,67.35-28.13s50.83,14.3,67.34,28.13c8.04,6.74,16.36,13.7,26.5,18.8,11.32,5.69,23.88,8.45,38.42,8.45v3.78Z"/>
  <path class="cls-1" d="M1766.09,268.49c-33.75,0-50.83-14.3-67.35-28.13-8.04-6.74-16.36-13.7-26.5-18.8-11.32-5.69-23.88-8.45-38.42-8.45s-27.1,2.76-38.42,8.45c-10.14,5.09-18.46,12.06-26.5,18.8-16.52,13.83-33.59,28.13-67.34,28.13s-50.83-14.3-67.34-28.13c-8.04-6.74-16.36-13.7-26.5-18.8-11.32-5.69-23.88-8.45-38.42-8.45s-27.1,2.76-38.42,8.45c-10.14,5.09-18.45,12.06-26.5,18.8-16.51,13.83-33.59,28.13-67.34,28.13s-50.83-14.3-67.34-28.13c-8.04-6.74-16.36-13.7-26.5-18.8-11.32-5.69-23.88-8.45-38.42-8.45s-27.1,2.76-38.42,8.45c-10.14,5.09-18.45,12.06-26.5,18.8-16.51,13.83-33.59,28.13-67.34,28.13s-50.83-14.3-67.34-28.13c-8.04-6.74-16.36-13.7-26.5-18.8-11.32-5.69-23.88-8.45-38.42-8.45s-27.1,2.76-38.42,8.45c-10.14,5.09-18.45,12.06-26.5,18.8-16.51,13.83-33.59,28.13-67.34,28.13s-50.83-14.3-67.34-28.13c-8.04-6.74-16.36-13.7-26.5-18.8-11.32-5.69-23.88-8.45-38.42-8.45s-27.1,2.76-38.41,8.45c-10.14,5.09-18.45,12.06-26.5,18.8-16.51,13.83-33.59,28.13-67.34,28.13s-50.83-14.3-67.34-28.13c-8.04-6.74-16.36-13.7-26.5-18.8-11.32-5.69-23.88-8.45-38.42-8.45s-27.1,2.76-38.42,8.45c-10.14,5.09-18.45,12.06-26.5,18.8-16.51,13.83-33.59,28.13-67.34,28.13s-50.83-14.3-67.34-28.13c-8.04-6.74-16.36-13.7-26.5-18.8-11.32-5.69-23.88-8.45-38.42-8.45v-3.78c33.75,0,50.83,14.3,67.34,28.13,8.04,6.74,16.36,13.7,26.5,18.8,11.32,5.69,23.88,8.45,38.42,8.45s27.1-2.76,38.42-8.45c10.14-5.09,18.45-12.06,26.5-18.8,16.51-13.83,33.59-28.13,67.34-28.13s50.83,14.3,67.34,28.13c8.04,6.74,16.36,13.7,26.5,18.8,11.32,5.69,23.88,8.45,38.42,8.45s27.1-2.76,38.42-8.45c10.14-5.09,18.45-12.06,26.5-18.8,16.51-13.83,33.59-28.13,67.34-28.13s50.83,14.3,67.34,28.13c8.04,6.74,16.36,13.7,26.5,18.8,11.32,5.69,23.88,8.45,38.42,8.45s27.1-2.76,38.42-8.45c10.14-5.09,18.45-12.06,26.5-18.8,16.51-13.83,33.59-28.13,67.34-28.13s50.83,14.3,67.34,28.13c8.04,6.74,16.36,13.7,26.5,18.8,11.32,5.69,23.88,8.45,38.42,8.45s27.1-2.76,38.42-8.45c10.14-5.09,18.46-12.06,26.5-18.8,16.51-13.83,33.59-28.13,67.34-28.13s50.83,14.3,67.34,28.13c8.04,6.74,16.36,13.7,26.5,18.8,11.32,5.69,23.88,8.45,38.42,8.45s27.1-2.76,38.42-8.45c10.14-5.09,18.45-12.06,26.5-18.8,16.51-13.83,33.59-28.13,67.34-28.13s50.83,14.3,67.34,28.13c8.05,6.74,16.36,13.7,26.5,18.8,11.32,5.69,23.88,8.45,38.42,8.45s27.1-2.76,38.42-8.45c10.14-5.09,18.46-12.06,26.5-18.8,16.52-13.83,33.59-28.13,67.34-28.13s50.83,14.3,67.34,28.13c8.05,6.74,16.36,13.7,26.5,18.8,11.32,5.69,23.88,8.45,38.42,8.45v3.78Z"/>
  <path class="cls-3" d="M1825.92,231.61c-33.75,0-50.83-14.3-67.34-28.13-8.04-6.74-16.36-13.7-26.5-18.8-11.32-5.69-23.88-8.45-38.42-8.45s-27.1,2.76-38.42,8.45c-10.14,5.09-18.46,12.06-26.5,18.8-16.52,13.83-33.59,28.13-67.34,28.13s-50.83-14.3-67.34-28.13c-8.05-6.74-16.36-13.7-26.5-18.8-11.32-5.69-23.88-8.45-38.42-8.45s-27.1,2.76-38.42,8.45c-10.14,5.09-18.45,12.06-26.5,18.8-16.51,13.83-33.59,28.13-67.34,28.13s-50.83-14.3-67.34-28.13c-8.04-6.74-16.36-13.7-26.5-18.8-11.32-5.69-23.88-8.45-38.42-8.45s-27.1,2.76-38.42,8.45c-10.14,5.09-18.45,12.06-26.5,18.8-16.51,13.83-33.59,28.13-67.34,28.13s-50.83-14.3-67.34-28.13c-8.04-6.74-16.36-13.7-26.5-18.8-11.32-5.69-23.88-8.45-38.42-8.45s-27.1,2.76-38.42,8.45c-10.14,5.09-18.45,12.06-26.5,18.8-16.51,13.83-33.59,28.13-67.34,28.13s-50.83-14.3-67.34-28.13c-8.04-6.74-16.36-13.7-26.5-18.8-11.32-5.69-23.88-8.45-38.42-8.45s-27.1,2.76-38.41,8.45c-10.14,5.09-18.45,12.06-26.5,18.8-16.51,13.83-33.59,28.13-67.34,28.13s-50.83-14.3-67.34-28.13c-8.04-6.74-16.36-13.7-26.5-18.8-11.32-5.69-23.88-8.45-38.42-8.45s-27.1,2.76-38.42,8.45c-10.14,5.09-18.45,12.06-26.5,18.8-16.51,13.83-33.59,28.13-67.34,28.13s-50.83-14.3-67.34-28.13c-8.04-6.74-16.36-13.7-26.5-18.8-11.32-5.69-23.88-8.45-38.42-8.45v-3.78c33.75,0,50.83,14.3,67.34,28.13,8.04,6.74,16.36,13.7,26.5,18.8,11.32,5.69,23.88,8.45,38.42,8.45s27.1-2.76,38.42-8.45c10.14-5.09,18.45-12.06,26.5-18.8,16.51-13.83,33.59-28.13,67.34-28.13s50.83,14.3,67.34,28.13c8.04,6.74,16.36,13.7,26.5,18.8,11.32,5.69,23.88,8.45,38.42,8.45s27.1-2.76,38.42-8.45c10.14-5.09,18.45-12.06,26.5-18.8,16.51-13.83,33.59-28.13,67.34-28.13s50.83,14.3,67.34,28.13c8.04,6.74,16.36,13.7,26.5,18.8,11.32,5.69,23.88,8.45,38.42,8.45s27.1-2.76,38.42-8.45c10.14-5.09,18.45-12.06,26.5-18.8,16.51-13.83,33.59-28.13,67.34-28.13s50.83,14.3,67.34,28.13c8.04,6.74,16.36,13.7,26.5,18.8,11.32,5.69,23.88,8.45,38.42,8.45s27.1-2.76,38.42-8.45c10.14-5.09,18.46-12.06,26.5-18.8,16.51-13.83,33.59-28.13,67.34-28.13s50.83,14.3,67.34,28.13c8.04,6.74,16.36,13.7,26.5,18.8,11.32,5.69,23.88,8.45,38.42,8.45s27.1-2.76,38.42-8.45c10.14-5.09,18.45-12.06,26.5-18.8,16.51-13.83,33.59-28.13,67.34-28.13s50.83,14.3,67.34,28.13c8.04,6.74,16.36,13.7,26.5,18.8,11.32,5.69,23.88,8.45,38.42,8.45s27.1-2.76,38.42-8.45c10.14-5.09,18.46-12.06,26.5-18.8,16.52-13.83,33.59-28.13,67.34-28.13s50.83,14.3,67.35,28.13c8.04,6.74,16.36,13.7,26.5,18.8,11.32,5.69,23.88,8.45,38.42,8.45v3.78Z"/>
  <path class="cls-2" d="M1766.09,216.72c-33.75,0-50.83-14.3-67.35-28.13-8.04-6.74-16.36-13.7-26.5-18.8-11.32-5.69-23.88-8.45-38.42-8.45s-27.1,2.76-38.42,8.45c-10.14,5.09-18.46,12.06-26.5,18.8-16.52,13.83-33.59,28.13-67.34,28.13s-50.83-14.3-67.34-28.13c-8.04-6.74-16.36-13.7-26.5-18.8-11.32-5.69-23.88-8.45-38.42-8.45s-27.1,2.76-38.42,8.45c-10.14,5.09-18.45,12.06-26.5,18.8-16.51,13.83-33.59,28.13-67.34,28.13s-50.83-14.3-67.34-28.13c-8.04-6.74-16.36-13.7-26.5-18.8-11.32-5.69-23.88-8.45-38.42-8.45s-27.1,2.76-38.42,8.45c-10.14,5.09-18.45,12.06-26.5,18.8-16.51,13.83-33.59,28.13-67.34,28.13s-50.83-14.3-67.34-28.13c-8.04-6.74-16.36-13.7-26.5-18.8-11.32-5.69-23.88-8.45-38.42-8.45s-27.1,2.76-38.42,8.45c-10.14,5.09-18.45,12.06-26.5,18.8-16.51,13.83-33.59,28.13-67.34,28.13s-50.83-14.3-67.34-28.13c-8.04-6.74-16.36-13.7-26.5-18.8-11.32-5.69-23.88-8.45-38.42-8.45s-27.1,2.76-38.41,8.45c-10.14,5.09-18.45,12.06-26.5,18.8-16.51,13.83-33.59,28.13-67.34,28.13s-50.83-14.3-67.34-28.13c-8.04-6.74-16.36-13.7-26.5-18.8-11.32-5.69-23.88-8.45-38.42-8.45s-27.1,2.76-38.42,8.45c-10.14,5.09-18.45,12.06-26.5,18.8-16.51,13.83-33.59,28.13-67.34,28.13s-50.83-14.3-67.34-28.13c-8.04-6.74-16.36-13.7-26.5-18.8-11.32-5.69-23.88-8.45-38.42-8.45v-3.78c33.75,0,50.83,14.3,67.34,28.13,8.04,6.74,16.36,13.7,26.5,18.8,11.32,5.69,23.88,8.45,38.42,8.45s27.1-2.76,38.42-8.45c10.14-5.09,18.45-12.06,26.5-18.8,16.51-13.83,33.59-28.13,67.34-28.13s50.83,14.3,67.34,28.13c8.04,6.74,16.36,13.7,26.5,18.8,11.32,5.69,23.88,8.45,38.42,8.45s27.1-2.76,38.42-8.45c10.14-5.09,18.45-12.06,26.5-18.8,16.51-13.83,33.59-28.13,67.34-28.13s50.83,14.3,67.34,28.13c8.04,6.74,16.36,13.7,26.5,18.8,11.32,5.69,23.88,8.45,38.42,8.45s27.1-2.76,38.42-8.45c10.14-5.09,18.45-12.06,26.5-18.8,16.51-13.83,33.59-28.13,67.34-28.13s50.83,14.3,67.34,28.13c8.04,6.74,16.36,13.7,26.5,18.8,11.32,5.69,23.88,8.45,38.42,8.45s27.1-2.76,38.42-8.45c10.14-5.09,18.46-12.06,26.5-18.8,16.51-13.83,33.59-28.13,67.34-28.13s50.83,14.3,67.34,28.13c8.04,6.74,16.36,13.7,26.5,18.8,11.32,5.69,23.88,8.45,38.42,8.45s27.1-2.76,38.42-8.45c10.14-5.09,18.45-12.06,26.5-18.8,16.51-13.83,33.59-28.13,67.34-28.13s50.83,14.3,67.34,28.13c8.05,6.74,16.36,13.7,26.5,18.8,11.32,5.69,23.88,8.45,38.42,8.45s27.1-2.76,38.42-8.45c10.14-5.09,18.46-12.06,26.5-18.8,16.52-13.83,33.59-28.13,67.34-28.13s50.83,14.3,67.34,28.13c8.05,6.74,16.36,13.7,26.5,18.8,11.32,5.69,23.88,8.45,38.42,8.45v3.78Z"/>
  <path class="cls-4" d="M1825.92,179.84c-33.75,0-50.83-14.3-67.34-28.13-8.04-6.74-16.36-13.7-26.5-18.8-11.32-5.69-23.88-8.45-38.42-8.45s-27.1,2.76-38.42,8.45c-10.14,5.09-18.46,12.06-26.5,18.8-16.52,13.83-33.59,28.13-67.34,28.13s-50.83-14.3-67.34-28.13c-8.05-6.74-16.36-13.7-26.5-18.8-11.32-5.69-23.88-8.45-38.42-8.45s-27.1,2.76-38.42,8.45c-10.14,5.09-18.45,12.06-26.5,18.8-16.51,13.83-33.59,28.13-67.34,28.13s-50.83-14.3-67.34-28.13c-8.04-6.74-16.36-13.7-26.5-18.8-11.32-5.69-23.88-8.45-38.42-8.45s-27.1,2.76-38.42,8.45c-10.14,5.09-18.45,12.06-26.5,18.8-16.51,13.83-33.59,28.13-67.34,28.13s-50.83-14.3-67.34-28.13c-8.04-6.74-16.36-13.7-26.5-18.8-11.32-5.69-23.88-8.45-38.42-8.45s-27.1,2.76-38.42,8.45c-10.14,5.09-18.45,12.06-26.5,18.8-16.51,13.83-33.59,28.13-67.34,28.13s-50.83-14.3-67.34-28.13c-8.04-6.74-16.36-13.7-26.5-18.8-11.32-5.69-23.88-8.45-38.42-8.45s-27.1,2.76-38.41,8.45c-10.14,5.09-18.45,12.06-26.5,18.8-16.51,13.83-33.59,28.13-67.34,28.13s-50.83-14.3-67.34-28.13c-8.04-6.74-16.36-13.7-26.5-18.8-11.32-5.69-23.88-8.45-38.42-8.45s-27.1,2.76-38.42,8.45c-10.14,5.09-18.45,12.06-26.5,18.8-16.51,13.83-33.59,28.13-67.34,28.13s-50.83-14.3-67.34-28.13c-8.04-6.74-16.36-13.7-26.5-18.8-11.32-5.69-23.88-8.45-38.42-8.45v-3.78c33.75,0,50.83,14.3,67.34,28.13,8.04,6.74,16.36,13.7,26.5,18.8,11.32,5.69,23.88,8.45,38.42,8.45s27.1-2.76,38.42-8.45c10.14-5.09,18.45-12.06,26.5-18.8,16.51-13.83,33.59-28.13,67.34-28.13s50.83,14.3,67.34,28.13c8.04,6.74,16.36,13.7,26.5,18.8,11.32,5.69,23.88,8.45,38.42,8.45s27.1-2.76,38.42-8.45c10.14-5.09,18.45-12.06,26.5-18.8,16.51-13.83,33.59-28.13,67.34-28.13s50.83,14.3,67.34,28.13c8.04,6.74,16.36,13.7,26.5,18.8,11.32,5.69,23.88,8.45,38.42,8.45s27.1-2.76,38.42-8.45c10.14-5.09,18.45-12.06,26.5-18.8,16.51-13.83,33.59-28.13,67.34-28.13s50.83,14.3,67.34,28.13c8.04,6.74,16.36,13.7,26.5,18.8,11.32,5.69,23.88,8.45,38.42,8.45s27.1-2.76,38.42-8.45c10.14-5.09,18.46-12.06,26.5-18.8,16.51-13.83,33.59-28.13,67.34-28.13s50.83,14.3,67.34,28.13c8.04,6.74,16.36,13.7,26.5,18.8,11.32,5.69,23.88,8.45,38.42,8.45s27.1-2.76,38.42-8.45c10.14-5.09,18.45-12.06,26.5-18.8,16.51-13.83,33.59-28.13,67.34-28.13s50.83,14.3,67.34,28.13c8.04,6.74,16.36,13.7,26.5,18.8,11.32,5.69,23.88,8.45,38.42,8.45s27.1-2.76,38.42-8.45c10.14-5.09,18.46-12.06,26.5-18.8,16.52-13.83,33.59-28.13,67.34-28.13s50.83,14.3,67.35,28.13c8.04,6.74,16.36,13.7,26.5,18.8,11.32,5.69,23.88,8.45,38.42,8.45v3.78Z"/>
</svg>