<?xml version="1.0" encoding="UTF-8"?>
<svg id="Layer_1" data-name="Layer 1" xmlns="http://www.w3.org/2000/svg" viewBox="0 0 743.28 636.96">
  <defs>
    <style>
      .cls-1 {
        fill: #70b2b2;
      }
    </style>
  </defs>
  <path class="cls-1" d="M333.81,588.85c2.07-4.4.18-7.81,1.43-12.03.55-1.86-1.22-13.28-1.22-13.28-2.09-49.93-8.02-100.98-2.87-150.96,1-9.72,4.29-19.55,5.28-29.27,6.42-63.54,7.17-126.91,5.29-190.61-.12-4.05,1.2-8.04,3.87-11.09,14.99-17.1,39.66.37,61.38-10.72,22.55-11.52,35.28-32.31,17.52-54.88-26.89-34.18-70.89-7.08-84.44,25.05-4.8-6.46-6.48-14.54-12.2-20.7-18.24-19.65-75.4-30.23-82.45,4.37-2.55,12.54,7.48,27.01,18.97,31.07,12.49,4.41,66.02,12.1,67.78,27.02-2.86,48.69-2.97,97.61-7.72,146.2-7.11,72.84-24.32,171.81-7.65,244.32,4.98,21.66,15.5,18.74,17.02,15.51ZM422.27,131.42c.44-1.47,2.46-1.58,3.06-.17,5.9,13.83-9.42,29.2-21.72,34.8-18.24,8.31-39.91-5.15-56.94,5.91-.57.37-1.26-.29-.88-.86,17.07-25.44,66.14-5.17,76.46-39.68ZM274.93,152.75c-15.74-4.33-27.54-15.08-22.34-31.88.31-1.02,1.81-.93,1.96.12.34,2.36-.52,5.53.39,8.61,4.12,13.85,25.25,14.18,36.05,17.71,11.88,3.88,27.14,9.76,35.44,19.51.38.45-.16,1.09-.67.79-15.57-9.22-34.04-10.24-50.84-14.86ZM324.94,156.52c-17.73-12.76-31.55-13.09-50.68-18.95-19.13-5.87-17.26-29,2.41-29.46,35.09-.83,59.8,19.67,59.05,54.75-.03,1.47-1.76,2.24-2.89,1.29-2.73-2.28-6.5-6.62-7.9-7.63ZM409.88,110.46c1.83.99,7.16,5.02,8,6.53,4.8,8.62-5.42,20.46-12.41,25.05-11.24,7.38-24.16,7.24-36.82,9.11-6.52.96-12.78,3.21-18.46,6.56l-6.94,4.11c-.93.55-2.1-.17-2.02-1.24,2.46-30.03,37.85-66.76,68.64-50.12ZM328.73,351.65c3.31-29.2,3.76-58.82,6.3-88.08.03-.32.5-.31.52.01l.94,24.37c1.48,50.73-11.01,101.43-13.36,151.53-2.17,46.48,3.5,95.26,6,141.66-5.24,3.85-8.98-23.43-9.28-25.57-10.37-73.62.72-131.76,8.89-203.92Z"/>
</svg>