<?xml version="1.0" encoding="UTF-8"?>
<svg id="Layer_1" data-name="Layer 1" xmlns="http://www.w3.org/2000/svg" viewBox="0 0 1124.4 636.96">
  <defs>
    <style>
      .cls-1 {
        fill: #70b2b2;
      }
    </style>
  </defs>
  <path class="cls-1" d="M296.32,221.03h-58.8c-6.23,0-11.28-5.05-11.28-11.28s5.05-11.28,11.28-11.28h58.8c6.23,0,11.28,5.05,11.28,11.28s-5.05,11.28-11.28,11.28Z"/>
  <path class="cls-1" d="M230.03,277.35H33.48c-6.23,0-11.28-5.05-11.28-11.28s5.05-11.28,11.28-11.28h196.55c6.23,0,11.28,5.05,11.28,11.28s-5.05,11.28-11.28,11.28Z"/>
  <path class="cls-1" d="M180.09,221.03h-73.7c-6.23,0-11.28-5.05-11.28-11.28s5.05-11.28,11.28-11.28h73.7c6.23,0,11.28,5.05,11.28,11.28s-5.05,11.28-11.28,11.28Z"/>
  <path class="cls-1" d="M365.1,277.72h-73.7c-6.23,0-11.28-5.05-11.28-11.28s5.05-11.28,11.28-11.28h73.7c6.23,0,11.28,5.05,11.28,11.28s-5.05,11.28-11.28,11.28Z"/>
  <path class="cls-1" d="M340.62,164.7h-73.7c-6.23,0-11.28-5.05-11.28-11.28s5.05-11.28,11.28-11.28h73.7c6.23,0,11.28,5.05,11.28,11.28s-5.05,11.28-11.28,11.28Z"/>
  <path class="cls-1" d="M305.78,397.14h-117.6c-6.23,0-11.28-5.05-11.28-11.28s5.05-11.28,11.28-11.28h117.6c6.23,0,11.28,5.05,11.28,11.28s-5.05,11.28-11.28,11.28Z"/>
  <path class="cls-1" d="M328.25,446.32h-85.38c-6.23,0-11.28-5.05-11.28-11.28s5.05-11.28,11.28-11.28h85.38c6.23,0,11.28,5.05,11.28,11.28s-5.05,11.28-11.28,11.28Z"/>
  <path class="cls-1" d="M322.35,333.67H96.5c-6.23,0-11.28-5.05-11.28-11.28s5.05-11.28,11.28-11.28h225.85c6.23,0,11.28,5.05,11.28,11.28s-5.05,11.28-11.28,11.28Z"/>
  <g id="_5od7EM" data-name="5od7EM">
    <g>
      <path class="cls-1" d="M861.06,189.46c12.05-16.42,71.12-35.09,78.52-9.64,6.97,23.95-41.43,39.18-59.36,39.16-14.72-.02-23.08-9.65-33.63,2.25-31.33,35.37-41.91,109.56-44.16,155.37,8.67-1.48,25.6,4.24,29.89-5.07l17.5-107.66c3.29-3.16,4.08.19,4.48,3.33,3.95,31.3-10.6,75.73-15.78,107.12l27-2.29c3.51-3.63-10.35-29.2,4.55-24.76.88,5.54-2.18,20.74,2.12,23.87,2.73,1.99,19.45-1.06,21.6-3.53,5.62-6.47,14.25-65.71,12.37-75.58-5.01-8.71-15.69-11.34-22.55-20.28-30.7-40.05,9.74-52.42,22.56-10.14,2.38,1.8,12.83-29.04,27.27-25.94,13.05,2.81,4.86,24.39.19,32.01-4.32,7.07-18.89,17.9-20.27,22.57-2.27,7.69-1.38,27.32-3.02,37.56-1.9,11.85-7.3,25.88-8.69,36.44-.59,4.5.14,2.94,3.36,3.36,3.91.52,28.95-3,30.12-4.88,2.85-31,10.8-62.19,23.18-90.66,2.65-6.09,17.01-29.75,17.25-32.23.24-2.43-13.41-30.38-14.74-40.82-1.97-15.48-.57-51.8,20.87-50.35,22.41,1.51,24.06,52.39,14.64,67.83,7.77-1.19,13.96-7.11,21.94-8.47,41.21-7.04,54.17,22.96,14.62,34.91-17.67,5.34-34.17,2.3-52.03.96-20.87,36.5-36.14,76.65-38.62,119.16,10.66-3.13,65.25-13.02,67.51-23.9,2.6-12.48-50.1-21.11-51.67-23.57-.33-.52-.34-6.2-.08-6.6,1.99-3.16,62.2,6.5,60.38,31.96-3.78,52.76-56.3,129.61-95.27,164.21-167.95,149.13-474.85,95.88-551.37-125.1-4.11-11.86-14.55-42.2-6.73-52,6.67-8.36,57.62-25.2,66.38-23.36,3.23.68,4.81,6.87,3.55,8.74-1.79,2.66-51.34,8.37-60.83,19.23-1.99,2.27-2.99,2.92-2.07,6.35,3.53,13.24,73.52,23.92,87.69,26.29-.54-35.82-9.24-73.46-27.48-104.39-2.88-4.89-13.38-21.28-17.66-23.04-1.84-.76-30.47,4.25-39.47,3.52-48.62-3.95-60.9-50.26-2.12-42.97,10.44,1.29,19.72,7.92,28.1,13.59-5.21-16.79-1.37-55.99,17.95-62.14,27.78-8.84,23.16,38.94,16.99,55.35-2.59,6.9-14.86,24.22-14.36,27.69.58,3.99,14,19.87,17.32,25.76,18.54,32.83,26,69.39,28.47,106.8,27.8,6.18,30.57,10.39,32.82-19.34.82-10.8-.24-42.83-4.25-52.06-4.89-11.26-27.51-16.82-31.25-38.63-7.7-44.8,32.55-17.26,35.56,8.42,42.67-38.59,35.17,17.08,2.05,28.44,6.69,26.56,3.07,52.92,2.42,79.79l26.04,1.7c4.14-.79,7.38-34.71,7.77-41.18,1.54-25.95.94-59.7-2.49-85.39-.79-5.87-4.99-30.02-6.91-33.67-2.41-4.59-22.94-7.85-29.69-10.89-11.61-5.23-26.15-16.28-29.71-28.9-7.91-28.03,27.89-19.24,41.6-7.79,6.16,5.14,8.4,13.77,15.95,14.47-1.4-19.14,8.96-44.3,26.93-53.09,29.34-14.35,25.12,24.71,17.66,42.45-7.69,18.29-23.23,29.86-35.69,43.39,12.13,53.07,10.99,107.44,4.62,161.16,37.91,4.41,24.08,1.08,22.59-25.97-1.35-24.53,7.85-54.47,6.64-72.01-.66-9.48-11.78-22.55-11.36-38.43,1.06-39.81,31.51-15.56,27.25,12.39,1.28,1.43,27.65-16.51,29.35,1.23,1.95,20.42-31.73,21.26-37.86,26.34-7.6,6.29-10.76,86.81-1.28,98.78l21.06-.08c2.24-39.53,16.15-77.9,31.12-114.27-11.96-13.72-27.17-58.76-12.51-72.25,19.84-18.26,32.21,39.01,26.49,51.24,8.82-5.5,24-9.56,22.49,5.43-1.5,14.9-19.08,13.23-27.65,17.6-6.39,3.26-18.06,40.06-20.77,49.12-2.53,8.45-15.43,57.5-14.39,61.82,1.26,5.24,23.1,4.71,24.79,2.25,6.31-9.18,3.21-45.95,4.15-58.54.98-13.11,5.99-13.11,6.96,0,1.46,19.63-1.01,40.59-4.6,59.83,2.79-.48,9.58,1.03,11.04-.22,2.72-2.34,15.67-61.13,17.19-69.6,11.18-62.3,12.15-128.08-4.61-189.39-20.34-4.54-73.22-22.99-70.4-50.46,2.88-28.13,64.18-3.04,65.93,18.84,5.2-10.75,3.5-22.54,7.82-35.01,10.76-31.04,54.83-56.76,49.43-4.66-2.91,28.04-25.9,50.74-46.3,67.78,22.58,86.52,13.51,177.96-12.06,262.73l29.31.02c-5.5-65.87,7.42-134.46,42.5-191.05,1.69-8.29-11.19-18.48-15.19-26.79-5.56-11.54-13.37-49.74,3.16-52.78,23.01-4.23,33.13,38.97,28.14,56.42,11.31-5.11,19.35-14.18,32.62-15.83,56.24-6.98,34.47,35.28-4.64,40.45-7.14.94-33.31-1.63-34.9-.9-6.57,3.02-23.69,42.91-26.95,51.78-10.68,29.04-19.32,68.28-20.34,99.14-.22,6.49.9,38.3,4.44,40.82,4.55,3.25,15.13,0,20.46-1.3,1.08-1.53-6.77-22.27-6.77-25.89v-36.07c0-3.34,6.76-3.34,6.76,0v36.07c0,2.17,5.95,24.9,7.08,25.61,1.39.87,13.77.87,15.16.01,3.97-2.46,14.55-79.48,27.11-89.16l-.72-2.97c-15.16-8.71-42.58-38.83-29.41-56.3,6.64-8.81,18.22-1.24,24.5,4.7,4.96,4.69,7.2,12.49,10.24,16.39,4.92,6.32,4.7-3.77,6.44-6.89,5.66-10.17,15.04-20.29,26.92-22.77,13.13-2.74,15.19,1.77,15.14,14.17-.11,23.82-24.17,43.32-43.93,52.22,2.52,30.5,2.73,60.61-2.16,90.91,9.66-.33,19.9,1.61,29-2.55,2.83-58.36,14.81-117.81,49.58-165.79-18.14-21.02-41.72-49.43-29.67-79.21,12.45-30.74,45.77,11.27,45.77,25.49v32.69ZM700.87,27.24c-29.8.62-39.62,38.31-38.19,63l16.14-30.05,6.4-2.62c-1.71,14.84-13.18,26.75-15.78,41.69,21.91-16.04,38.36-44.62,31.43-72.03ZM641.07,84.81c-6.22-7.67-10.32-13.16-20.03-17.18-9.49-3.93-31.52-7.82-24.32,8.49,6.83,15.46,30.83,29.86,47.9,29.9.52-2.77-33.45-21.67-21.39-22.55,9.34-.68,23.66,15.67,25.9,13.53-1.24-5.85-5.18-8.63-8.07-12.19ZM732.53,162.39c5.41-9.81-7.03-50-19.11-47.32-11.65,2.58-1.43,48.99,10.09,54.1,1.3-5.35-10.61-32.68,2.06-24.59,2.77,1.77,2.08,16.02,6.96,17.82ZM842.23,136.14c-7.11-7.56-18.02-12.7-21.24.83-4.23,17.8,4.85,37.43,15.35,51.28,2.5,3.3,6.64,10.9,11.19,10.21-2.25-12.79-3.67-23.92-11.28-34.88,10.01-10.47,13.67,12.21,15.82,19.09,3.96-1.27,2.65-13.82,2.24-16.91-1.13-8.49-6.28-23.46-12.08-29.63ZM538.68,198.47c14.43-4.63,44.18-58.97,27.12-66.54-14.45-6.42-37.82,40.11-31.63,53.01,7.44-5.44,7.28-25.75,20.29-21.38-3.98,12.27-14.41,21.62-15.78,34.92ZM428.05,155.77c-8.68-5.96-23.94,25.01-22.18,32.81l4.25,18.9c2.19-5.19,2.13-23.45,7.95-24.78,11.36-2.59-3.28,29.33,1.12,36.07,8.47-7.51,15.3-26.64,15.52-37.43.08-3.85-4.73-24.24-6.66-25.57ZM743.84,182.67c9.78,4.07,56.84-9.18,54.1-21.33-2.72-12.07-41.35-3.32-47.34,6.71l18.01,1.13c7.37,6.73-24.55,8.4-24.78,13.49ZM989.54,216.5c6.44-10.26,7.39-63.52-9.79-60.67-13.37,2.22-15.1,43.22-8.9,53.48l7.43,16.21c-.56-12.84,4.37-23.32.03-36.05,13.62-3.3,8.58,8.19,9.01,19.18.11,2.73-1.7,8.38,2.23,7.85ZM513.85,182.68c.52-11.81-35.23-27.42-38.29-16.76-3.77,13.13,32.23,38.4,45.06,33.7-1.97-5.58-24.63-16.13-24.62-18.02,0-.32,2.68-5.79,3.18-5.63l14.67,6.72ZM861.06,209.75h37.2c7.32,0,40.32-21.45,34.92-29.26-.38-.56-11.19-3.76-12.91-4.03-17.48-2.74-31.45,1.88-45.57,11.98-6.64,6.92,13.13-1.61,15.68,1.03.23.24.23,6.49,0,6.74-.61.65-12.38,2.19-17.31,4.13-1.75.69-16.2,6.09-12.01,9.41ZM635.58,232.28c.89-13.79-.83-30.06-13.48-38.31-9.37,18.58-3.39,34.35,4.51,51.83,4.16.55,1.7-4.56,1.25-6.87-1.26-6.35-7.23-14.36,2.07-15.65l5.65,9ZM392.12,216.49c-12.88-12.73-37.75-16.7-51.86-3.3,12.05,22.08,41.01,23.93,63.13,19.08-1.35-8.09-23.88-8.02-24.81-9.01-.45-.48.29-4.91,0-6.74l13.54-.03ZM994.08,234.57c.85,4.11,4.43,4.17,7.8,4.56,17.18,1.98,37.42-3.4,48.52-16.99-11.53-12.42-26.35-8.25-40.53-3.35-.97,3.7,3.19,1.55,3.93,2.6,5.52,7.79-14.42,11.55-19.72,13.19ZM576.78,243.44c2.95-3.01-4.27-20.69-5.41-20.16-8.75,9.36-4.65,20.53-3.37,31.54,5.03.08.56-9.25,2.48-11.13.83-.82,5.57.49,6.31-.25ZM804.68,227.79c-16.78.77-27.44,16.85-31.53,31.55,3.62-.18,3.3-6.07,6.03-6.81,2-.54,9.28-1.34,7.45,3.39-.93,2.41-16.87,20.43-15.75,21.43,19.05-8.36,37.2-27.1,33.81-49.57ZM757.33,259.35c3.89-6.23-13.67-27.71-22.5-27.05-1.83,14.04,2.26,26.31,12.35,36.1,13.02,12.64,6.47-4.03-1.05-10.18,4.16-7.92,10.54,2.19,11.21,1.13ZM491.3,261.6c2.74-3.35-12.43-25.07-20.26-22.53-2.53,16.25,5.97,27.74,16.91,38.3,2.8-6.45-8.37-11.7-5.64-20.27l8.98,4.5ZM896.91,259.08c2.45-3.21-9.14-18.66-15.54-15.5-1.07,8.46,2.29,16.35,7.84,22.58,5.97,6.7,1.15-3.64,2.2-4.71,1.42-1.45,4.89-1.56,5.51-2.37ZM933.19,243.58c-2.89-3.22-26.53,20.96-8.99,18.04l-2.26,6.74c6.53-.84,13.61-22.16,11.24-24.78ZM606.29,252.6c-1.01-.89-12.75,1.42-13.44,2.46-.34.5,2.61,8.06-2.33,11.03,2.97,2.66,19.1-10.56,15.77-13.49ZM522.87,257.1c-3.94-4.45-20.41,19.28-18,24.79,4.68-2.08,22.28-19.95,18-24.79ZM764.1,302.19c-5.09-.93-3.6.22-5.04,2.86-3.84,7.08-22.53,71.14-19.74,73.77,4.55-.9,18.2,1.97,20.54-1.3,1.29-1.82,3.95-28.55,4.23-33.65.76-13.82-.49-27.86.01-41.67ZM1005.35,356.31c-48.54,15.06-99.27,22.56-149.94,27.02-142.23,12.51-290.86,8.1-431.75-14.62l-49.61-13.52c84.4,298.35,546.05,299.91,631.3,1.12Z"/>
      <path class="cls-1" d="M478.58,470.48c18.28,17.86,41.4,33.35,63.78,45.56,5,2.73,21.51,6.74,21.04,12.73-.42,5.36-9.73,2.66-12.85,1.61-35.63-11.93-85.2-56.5-107.08-86.8-1.59-2.21-28.58-39.75-11.92-35.44,14.19,21.82,28.32,44.06,47.03,62.34Z"/>
    </g>
  </g>
</svg>