<?xml version="1.0" encoding="UTF-8"?>
<svg id="Layer_1" data-name="Layer 1" xmlns="http://www.w3.org/2000/svg" viewBox="0 0 1377.08 1347.45">
  <defs>
    <style>
      .cls-1 {
        fill: #489889;
        opacity: .5;
      }
    </style>
  </defs>
  <path class="cls-1" d="M855.23,117.64c164.25,12.56,156.77,104.41,159.43,157.13,6.2,57.6,2.9,455.13,0,504.83-8.48,145.32-52.08,175.67-111.26,181.19-21.28,1.98-98.93.77-123.33.53,84.06,143.91,216.46,323.8,113.16,254.08-172.75-116.59-152.39-92.49-284.06-226.78-217.44-4.41-284.66-28.88-292.26-213.56-6.48-157.08-1.34-467.66-1.34-519.92,0-102.03,93.09-139.62,192.28-138.19,119.63,1.7,310.47-2.12,347.37.7Z"/>
</svg>