<?xml version="1.0" encoding="UTF-8" standalone="no"?>
<!DOCTYPE svg PUBLIC "-//W3C//DTD SVG 1.1//EN" "http://www.w3.org/Graphics/SVG/1.1/DTD/svg11.dtd">
<svg width="100%" height="100%" viewBox="0 0 1024 1024" version="1.1" xmlns="http://www.w3.org/2000/svg" xmlns:xlink="http://www.w3.org/1999/xlink" xml:space="preserve" xmlns:serif="http://www.serif.com/" style="fill-rule:evenodd;clip-rule:evenodd;stroke-linejoin:round;stroke-miterlimit:2;">
    <g id="Background" transform="matrix(1.502976,0,0,1.502976,107.589286,3.994048)">
        <path d="M236,246.991C243.846,256.471 251.233,266.821 253.553,286.495C254.565,295.067 251.879,297.096 257.053,302.904C258.233,304.228 261.81,309.894 261.63,303.502C261.382,294.686 261.966,240.725 261.07,237.617C260.945,237.182 260.413,235.337 258.197,232.743C256.172,230.374 245.747,218.175 241.664,197.473C240.421,191.17 240.605,179.209 241.985,173.632C245.409,159.802 246.514,160.198 249.379,153.437C249.475,153.21 252.694,147.766 254.314,145.385C258.159,139.734 258.331,139.894 262.359,134.402C262.829,133.76 263.725,132.539 268.927,126.936C269.09,126.761 270.09,125.684 271.426,125.299C274.141,124.515 274.961,126.167 282.361,134.623C285.931,138.703 292.92,149.48 293.072,149.749C305.92,172.516 304.905,187.566 302.682,200.53C301.795,205.704 297.227,217.422 291.414,225.44C290.719,226.399 288.098,230.373 286.421,232.435C282.474,237.289 283.016,237.815 283.019,256.5C283.024,264.5 283.028,272.5 283.032,280.501C283.037,285.015 283.222,284.986 283.241,289.501C283.292,301.072 283.167,301.059 282.913,303.522C282.505,307.469 284.833,306.843 285.499,305.499C286.999,302.47 290.404,301.413 290.593,295.503C290.77,289.958 289.885,278.247 298.269,261.392C298.88,260.162 301.15,254.341 310.286,245.284C312.985,242.608 327.689,228.031 353.505,225.562C362.779,224.675 363.716,225.982 364.218,226.682C365.655,228.688 369.287,251.382 359.052,272.279C354.399,281.778 349.648,286.346 348.643,287.612C343.408,294.206 329.397,303.096 319.585,305.757C318.767,305.979 307.936,309.414 306.724,309.961C301.704,312.225 291.382,326.436 287.776,333.637C282.598,343.976 283.287,344.374 283.287,365.5C283.287,399.673 283.274,399.675 282.982,402.503C282.757,404.691 284.658,405.141 285.534,403.527C285.946,402.767 288.231,398.559 291.594,394.58C294.346,391.323 294.23,391.254 297.146,388.171C304.926,379.944 304.781,379.85 312.977,371.994C313.573,371.423 316.283,370.006 317.228,365.449C318.776,357.981 319.628,348.366 325.711,336.609C328.647,330.935 337.247,315.502 359.743,304.997C365.168,302.463 371.449,300.762 372.494,300.479C382.372,297.803 396.178,296.359 398.458,297.602C398.96,297.876 399.873,298.374 400.293,304.517C400.525,307.921 400.876,337.775 382.525,357.524C380.817,359.362 380.871,359.637 377.08,363.035C374.7,365.168 365.71,371.491 361.421,373.346C359.478,374.186 356.584,376.478 342.432,380.265C334.453,382.4 330.605,381.931 324.666,388.645C313.727,401.013 313.763,400.999 311.498,403.499C308.722,406.563 306.185,410.312 304.442,412.455C302.32,415.064 285.888,438.662 284.404,444.474C282.054,453.675 283.916,453.855 282.97,468.499C282.783,471.404 284.345,473.298 285.613,470.591C287.733,466.067 290.098,463.147 290.573,462.56C299.889,451.053 311.293,441.645 312.496,440.496C313.024,439.992 318.605,434.662 319.007,434.099C319.585,433.292 323.008,428.509 325.319,423.414C329.799,413.536 330.712,413.256 335.38,407.406C341.411,399.847 349.157,394.982 351.321,393.258C353.411,391.592 359.374,388.69 360.296,388.147C367.227,384.063 381.945,380.606 383.471,380.334C387.042,379.696 397.326,377.825 414.501,377.702C421.43,377.652 420.306,380.604 419.208,387.429C418.264,393.291 415.174,400.499 414.706,401.592C414.31,402.517 413.978,404.731 407.749,414.644C404.178,420.326 404.099,420.24 400.811,423.78C398.663,426.092 393.318,432.988 380.744,439.942C369.853,445.966 362.368,448.047 351.436,450.225C337.935,452.914 333.37,450.824 328.079,455.017C321.241,460.437 309.462,473.038 302.71,482.64C301.125,484.895 296.656,492.409 295.979,493.745C278.446,528.343 290.887,550.793 296.944,562.249C297.314,562.949 300.275,567.041 300.572,567.452C328.335,605.82 389.547,609.678 421.311,580.287C448.344,555.272 447.707,517.415 424.508,495.492C412.653,484.288 392.701,482.365 382.626,484.997C379.471,485.821 366.663,488.34 357.294,499.319C353.433,503.844 353.644,503.984 351.01,509.291C347.243,516.877 345.869,533.986 357.605,542.344C364.436,547.209 375.754,546.458 380.486,542.483C388.184,536.017 384.243,530.74 388.357,525.396C392.574,519.919 405.005,519.944 406.724,530.463C407.962,538.039 404.668,547.114 399.463,553.469C399.025,554.003 392.063,563.706 378.539,566.672C361.263,570.461 349.945,562.867 347.49,561.514C347.238,561.375 346.441,560.935 344.557,559.426C342.884,558.086 342.814,558.202 341.3,556.702C340.379,555.789 336.09,552.259 332.243,544.624C332.096,544.332 318.2,520.993 335.24,493.355C336.099,491.963 338.583,487.529 345.551,480.55C348.055,478.042 347.919,477.928 350.648,475.675C352.871,473.84 352.961,474.006 357.363,471.259C365.231,466.35 377.576,463.538 379.409,463.12C390.533,460.586 406.239,461.358 416.565,465.336C418.49,466.077 427.939,468.945 437.688,477.273C442.421,481.316 449.321,486.412 456.268,501.609C460.184,510.175 464.187,526.939 463.183,537.451C461.377,556.355 460.456,556.644 458.616,561.531C457.879,563.491 458.759,564.642 460.308,563.265C460.949,562.695 460.554,562.41 466.365,554.408C467.586,552.727 467.55,552.748 473.209,545.295C473.557,544.836 473.497,544.805 477.317,539.38C488.042,524.15 502.991,495.099 511.414,463.479C522.155,423.161 520.117,389.904 519.724,383.482C519.272,376.101 518.741,359.93 513.781,339.424C512.322,333.392 512.549,333.355 510.762,327.416C510.403,326.223 508.86,320.069 507.523,316.493C506.414,313.525 505.544,310.156 501.231,299.612C496.653,288.417 484.858,265.279 477.729,254.371C476.845,253.02 475.742,250.205 470.648,243.387C470.197,242.783 470.391,242.679 465.359,235.593C462.303,231.289 462.101,231.482 458.391,226.579C452.39,218.648 438.119,204.582 436.315,199.587C435.121,196.278 434.705,192.564 438.142,188.206C438.165,188.178 439.1,185.993 443.575,184.801C448.063,183.607 453.192,187.507 453.879,188.03C459.28,192.138 458.998,192.412 463.699,197.312C479.064,213.328 496.504,238.351 509.913,264.291C536.791,316.285 541.312,359.655 542.476,386.501C543.701,414.762 539.253,452.628 529.195,483.395C526.414,491.903 522.206,503.015 520.246,507.384C514.822,519.477 506.237,538.315 489.636,560.596C480.253,573.189 476.666,577.093 475.431,578.437C466.978,587.637 429.036,635.568 354.641,659.933C337.022,665.704 301.734,675.835 252.505,672.418C220.721,670.211 184.66,660.617 155.323,645.858C143.109,639.713 143.274,639.486 131.42,632.633C124.829,628.822 107.508,616.258 99.575,609.414C88.582,599.932 78.334,589.27 76.57,587.435C67.53,578.031 56.032,562.775 54.945,561.197C54.834,561.036 36.753,536.786 24.204,506.626C3.941,457.925 3.793,420.986 2.805,411.456C1.752,401.288 3.249,370.489 4.931,360.593C6.642,350.526 6.222,350.477 8.284,340.459C13.119,316.957 15.111,312.44 21.312,294.433C21.483,293.937 27.25,278.898 32.937,267.722C39.636,254.554 41.995,250.2 48.293,240.378C50.116,237.536 50.332,236.255 54.159,231.253C55.501,229.499 55.276,229.376 56.64,227.61C60.136,223.089 65.65,214.838 68.551,211.545C68.776,211.29 82.338,194.91 87.413,190.396C88.978,189.005 93.27,184.291 100.522,185.324C104.33,185.866 115.573,192.466 103.506,205.506C28.618,286.432 25.534,374.828 25.084,379.435C24.442,386.016 24.834,403.33 24.938,411.49C24.953,412.64 26.63,432.177 28.218,440.562C29.011,444.743 31.967,464.417 41.495,489.502C44.227,496.697 46.527,501.185 49.299,507.593C52.806,515.7 68.802,543.555 71.442,543.812C72.913,543.955 73.377,542.456 74.598,541.597C76.202,540.468 81.908,533.02 96.441,522.411C98.125,521.182 106.348,515.857 110.602,513.701C116.128,510.901 133.022,501.655 158.516,499.682C164.431,499.224 178.114,500.163 185.411,501.822C210.681,507.563 225.974,519.014 227.771,520.058C240.574,527.497 261.447,547.437 268.29,555.724C268.769,556.304 268.738,556.29 269.261,556.865C270.711,558.458 272.145,557.561 271.258,555.575C266.31,544.498 266.945,544.276 260.698,524.434C258.311,516.85 250.768,490.382 231.711,470.296C228.297,466.698 228.381,466.655 224.912,463.096C221.945,460.052 221.976,460.059 219.1,456.903C219.051,456.849 219.047,456.853 215.585,454.378C209.293,449.878 189.018,452.563 171.341,443.842C162.695,439.577 148.951,433.522 136.921,415.223C133.477,409.984 133.528,409.993 130.728,404.385C128.242,399.407 121.321,380.037 125.457,378.408C127.217,377.714 151.387,375.354 178.325,385.939C182.59,387.614 189.53,391.438 191.399,392.675C203.392,400.605 210.086,409.189 215.654,417.406C222.303,427.218 220.915,432.294 227.634,437.314C235.541,443.22 246.332,453.839 252.076,460.814C258.484,468.593 258.707,468.994 259.151,469.794C259.281,470.029 259.335,470.299 259.455,470.54C260.036,471.703 261.782,472.127 261.706,469.528C261.078,448.152 262.68,447.718 259.112,440.701C257.866,438.251 254.684,431.995 239.738,412.336C238.207,410.322 238.321,410.265 236.683,408.342C235.801,407.306 235.852,407.283 225.753,395.309C216.537,384.383 216.205,384.12 206.456,381.7C200.793,380.294 172.091,375.424 155.923,349.236C145.363,332.132 144.106,318.462 144.451,303.499C144.609,296.612 147.215,297.113 148.49,297.097C158.755,296.972 171.718,299.144 182.487,303.534C190.808,306.926 197.817,312.053 198.438,312.573C202.26,315.771 202.28,315.696 205.812,319.182C206.344,319.707 206.517,319.441 207.001,319.995C207.227,320.253 207.098,320.352 209.69,323.339C212.94,327.083 214.994,329.736 219.79,339.365C221.006,341.808 224.451,350.798 225.713,358.463C227.108,366.933 227.538,368.662 229.609,370.369C230.701,371.269 233.463,373.546 242.446,382.554C253.036,393.173 256.709,399.086 257.72,400.33C258.173,400.888 258.168,400.858 258.591,401.434C258.753,401.655 260.564,404.119 260.667,404.158C262.218,404.739 262.153,402.65 262.148,402.47C261.92,395.103 261.523,395.128 261.567,379.5C261.668,343.584 261.922,341.928 256.069,331.764C254.591,329.198 251.386,324.774 250.956,324.181C246.462,317.979 239.72,310.262 236.579,309.291C234.154,308.542 218.264,305.896 203.38,294.665C192.222,286.246 186.783,275.79 184.698,271.407C178.596,258.58 178.934,243.443 178.81,242.455C178.759,242.049 178.802,228.8 180.784,226.779C182.637,224.89 196.57,225.188 207.388,228.818C210.975,230.022 223.084,234.155 234.413,245.586C235.17,246.35 235.245,246.227 236,246.991L98.001,576.991C99.604,579.347 103.873,583.098 104.426,583.584C107.519,586.301 108.215,584.873 112.623,580.628C123.157,570.485 143.657,561.173 158.461,560.108C162.742,559.8 175.702,557.679 199.286,566.999C199.479,567.075 212.249,573.553 215.337,575.752C219.983,579.06 220.022,578.956 224.619,582.33C232.702,588.261 232.546,588.416 240.62,594.328C245.286,597.744 249.307,600.809 249.765,601.076C255.575,604.465 255.397,604.711 261.257,607.968C269.823,612.73 271.59,613.553 282.317,617.941C301.648,625.849 305.597,624.284 308.714,628.367C312.984,633.963 295.455,638.865 282.519,637.348C269.594,635.833 259.783,632.094 250.273,626.901C244.183,623.576 240.542,621.787 230.422,614.62C229.263,613.799 228.684,613.612 226.328,611.731C222.099,608.356 221.856,608.732 217.608,605.365C208.989,598.532 198.115,591.385 194.406,589.697C188.772,587.132 181.104,582.466 164.501,581.961C150.5,581.535 125.617,595.347 125.408,599.493C125.304,601.562 132.345,605.566 135.351,607.728C138.872,610.261 147.302,615.136 148.361,615.748C153.107,618.493 178.909,633.414 211.576,642.224C227.565,646.536 244.575,648.381 247.477,648.696C266.435,650.752 298.295,649.856 312.555,646.741C314.956,646.217 317.889,646.223 323.565,644.723C343.579,639.436 348.634,640.598 383.616,623.722C385.669,622.731 385.661,622.767 387.729,621.762C390.099,620.61 390.162,620.676 390.34,620.387C390.777,619.678 390.362,618.625 389.469,618.815C385.771,619.6 385.915,620.304 378.544,620.897C373.456,621.306 363.851,623.179 339.562,619.224C334.001,618.318 322.488,615.48 316.601,613.231C304.868,608.748 304.92,608.692 293.743,603.025C292.296,602.291 281.865,596.205 270.559,586.432C265.982,582.477 265.916,582.604 261.441,578.566C254.846,572.616 254.857,572.658 248.462,566.539C246.544,564.703 239.396,558.116 238.604,557.387C237.482,556.353 228.696,548.257 224.167,544.926C218.738,540.933 204.36,529.233 180.524,524.388C164.468,521.124 145.134,520.075 115.756,536.913C113.481,538.217 100.454,547.704 96.516,551.517C94.732,553.244 94.835,553.296 93.039,555.024C90.736,557.24 90.63,557.086 88.376,559.377C85.026,562.782 85.474,563.774 88.768,567.253C93.388,572.134 93.287,572.187 98.001,576.991L236,246.991Z" style="fill:rgb(29,139,67);fill-opacity:0.99;"/>
        <path d="M339,151.064C324.171,131.91 320.885,128.529 314.324,119.624C313.717,118.8 309.521,113.106 306.564,109.45C302.856,104.865 293.869,91.623 290.654,87.381C289.309,85.607 289.544,85.475 288.226,83.681C287.025,82.046 279.567,69.975 279.322,69.609C273.926,61.537 272.383,55.851 270.596,59.568C270.344,60.092 262.13,74.459 260.72,76.631C259.583,78.381 248.806,94.977 246.263,98.338C242.45,103.377 239.268,107.787 238.67,108.616C227.459,124.151 220.449,132.055 193.074,166.191C182.427,179.469 182.385,179.417 178.024,185.088C176.509,187.059 172.718,191.744 172.253,192.32C164.024,202.491 164.11,202.529 163.381,203.4C162.204,204.805 162.331,204.873 161.222,206.306C148.292,223.015 147.335,225.127 140.625,234.582C134.441,243.298 129.03,252.488 125.718,257.63C123.743,260.695 119.683,268.189 118.818,269.68C117.249,272.384 117.55,272.502 116.004,275.241C109.939,285.985 110.442,286.205 105.385,297.447C104.725,298.914 104.853,298.921 104.212,300.378C92.567,326.855 89.209,356.072 89.688,369.492C90.422,390.074 92.359,396.55 93.068,399.616C99.38,426.906 105.699,436.794 112.937,449.229C114.433,451.8 122.741,463.588 129.963,473.127C132.364,476.298 143.047,484.435 125.458,491.411C118.426,494.199 117.444,492.903 109.578,483.434C101.946,474.247 89.378,453.967 84.292,442.597C79.4,431.661 77.375,428.592 73.289,412.549C72.509,409.488 67.497,389.813 67.451,373.5C67.425,364.472 67.639,364.499 68.127,355.475C68.196,354.194 68.534,347.958 69.513,339.501C72.05,317.608 82.743,291.512 83.265,290.394C88.201,279.825 87.715,279.622 93.14,269.307C100.222,255.841 100.189,255.843 100.814,254.679C101.793,252.854 102.052,253.048 103.074,251.246C105.73,246.561 105.87,246.667 106.099,246.261C108.431,242.137 108.687,242.318 111.025,238.217C117.53,226.805 138.806,197.7 139.669,196.64C140.024,196.204 143.983,191.339 144.099,191.181C166.1,161.534 202.034,118.934 219.427,95.45C236.33,72.628 242.218,61.281 245.278,56.374C248.23,51.641 262.04,26.343 267.238,13.398C270.403,5.517 271.926,-1.041 273.587,4.469C274.653,8.003 280.043,20.955 280.734,22.388C288.439,38.377 288.706,38.23 290.033,40.745C300.572,60.72 304.141,63.728 310.937,75.222C311.017,75.356 322.278,91.246 327.428,97.56C327.791,98.006 338.955,112.766 340.421,114.565C342.264,116.826 341.999,116.995 343.866,119.206C349.721,126.139 351.651,129.089 355.43,133.56C357.762,136.319 357.493,136.493 359.846,139.216C363.996,144.018 367.928,149.428 371.414,153.573C371.842,154.082 385.463,171.376 386.446,172.546C389.309,175.955 410.279,203.365 418.68,215.383C436.802,241.306 439.826,248.221 441.749,251.36C448.137,261.79 452.495,271.432 452.925,272.284C453.92,274.259 458.343,282.495 464.246,298.593C483.286,350.514 476.325,386.319 475.691,392.522C475.654,392.883 471.954,422.536 456.084,451.263C449.7,462.82 447.347,465.132 446.789,465.75C446.355,466.23 445.392,468.245 442.473,467.627C439.398,466.976 431.182,461.434 430.318,460.751C429.208,459.872 425.229,458.961 431.775,449.677C432.83,448.18 432.744,448.152 433.694,446.603C434.01,446.087 439.166,437.003 442.567,428.523C454.224,399.46 454.086,384.615 455.022,374.449C455.611,368.064 454.463,350.086 451.956,338.386C451.112,334.448 449.471,327.365 449.248,326.576C445.025,311.617 444.767,311.713 438.949,297.317C434.184,285.526 427.18,273.606 426.654,272.419C426.41,271.868 421.363,262.649 421.331,262.599C411.937,247.976 412.203,247.837 411.361,246.584C409.89,244.393 407.093,239.796 404.58,236.442C401.739,232.65 402.144,232.399 399.263,228.667C399.059,228.403 397.348,226.185 396.782,225.313C395.501,223.338 394.497,221.791 379.385,201.582C372.772,192.737 372.498,192.968 371.935,192.192C368.116,186.937 346.212,159.564 339,151.064Z" style="fill:rgb(30,140,68);fill-opacity:0.99;"/>
    </g>
</svg>
